<svg width="442" height="459" viewBox="0 0 442 459" fill="none" xmlns="http://www.w3.org/2000/svg">
<path fill-rule="evenodd" clip-rule="evenodd" d="M153.841 201.758H189.148L194.816 212.81L200.37 203.969L199.236 201.758H201.758H232.022H264.808L270.475 212.81L276.029 203.969L274.896 201.758H277.418H307.681H340.467L441.346 398.473H375.775L289.631 230.492L284.077 239.333L365.687 398.473H300.115L247.976 296.8L242.422 305.641L290.027 398.473H224.456L206.32 363.108L184.104 398.473H153.841L192.719 336.585L172.316 296.8L108.445 398.473H78.1813L158.715 270.277L137.179 228.282L30.2637 398.473H0L123.577 201.758H153.841ZM208.417 239.333L213.971 230.492L234.374 270.277L228.82 279.118L208.417 239.333Z" fill="#fb8500"/>
<path fill-rule="evenodd" clip-rule="evenodd" d="M273.374 90.7912H298.593L369.209 90.7912H394.429V116.011V161.407V186.626H369.209H298.593H273.374V196.714H248.154V186.626V161.407H273.374H369.209V116.011L273.374 116.011H248.154V90.7912V25.2198H197.714L197.714 90.7912V116.011H172.495L71.6154 116.011V161.407H172.495H197.714V186.626V196.714H172.495V186.626H147.275H71.6154H46.3956V161.407V116.011V90.7912H71.6154L147.275 90.7912H172.495V65.5714L172.495 25.2198V0H197.714H248.154H273.374V25.2198V65.5714V90.7912ZM172.494 408.56V433.78V459H197.714H248.154H273.374V433.78V408.56H248.154V433.78H197.714V408.56H172.494Z" fill="#fb8500"/>
</svg>
